  http://www.scenespeeds.com/



Genre:Comedy 
Language:English 
IMDb:http://www.imdb.com/title/tt1869671/ 
Source:720p.2012.BluRay.x264-PFa Thanks 
Encoder:Tony 
Format: AVI 
Format/Info: Audio Video Interleave 
File size: 1.33 GiB 
Duration: 1h 32mn 
Overall bit rate: 2 066 Kbps 

Video 
ID: 0 
Format: MPEG-4 Visual 
Format profile: Advanced Simple@L5 
Format settings, BVOP: 1 
Format settings, QPel: No 
Format settings, GMC: No warppoints 
Format settings, Matrix: Default (H.263) 
Codec ID: XVID 
Codec ID/Hint: XviD 
Duration: 1h 32mn 
Bit rate: 1 673 Kbps 
Width: 640 pixels 
Height: 360 pixels 
Display aspect ratio: 16:9 
Frame rate: 23.976 fps 
Color space: YUV 
Chroma subsampling: 4:2:0 
Bit depth: 8 bits 
Scan type: Progressive 
Compression mode: Lossy 
Bits/(Pixel*Frame): 0.303 
Stream size: 1.08 GiB (81%) 
Writing library: XviD 1.2.1 (UTC 2008-12-04) 

Audio 
ID: 1 
Format: AC-3 
Format/Info: Audio Coding 3 
Mode extension: CM (complete main) 
Codec ID: 2000 
Duration: 1h 32mn 
Bit rate mode: Constant 
Bit rate: 384 Kbps 
Channel(s): 6 channels 
Channel positions: Front: L C R, Side: L R, LFE 
Sampling rate: 48.0 KHz 
Bit depth: 16 bits 
Compression mode: Lossy 
Stream size: 253 MiB (19%) 
Alignment: Aligned on interleaves 
Interleave, duration: 42 ms (1.00 video frame) 
Interleave, preload duration: 512 ms 

Plot: 
Five years ago our heroes the Duckrockers thought they had figured it all out - they had found themselves



  http://www.scenespeeds.com/